# xmcd CD database file
#
# Track frame offsets:
#	150
#	17545
#	36037
#	53775
#	70712
#	88670
#	109910
#	130755
#	144290
#	160410
#	178947
#	199497
#	215322
#	232752
#	250010
#	268867
#	298792
#
# Disc length: 4078 seconds
#
# Revision: 0
# Processed by: cddbd v1.5.1PL0 Copyright (c) Steve Scherf et al.
# Submitted via: CDex 1.51
#
DISCID=f30fec11
DTITLE=CROWN OF THORNS - 01-CROWN OF THORNS
DYEAR=1993
DGENRE=Rock
TTITLE0=CROWN OF THORNS
TTITLE1=HIKE IT UP
TTITLE2=DYIN' FOR LOVE
TTITLE3=NO YOU DON'T
TTITLE4=STANDIN' ON THE CORNER FOR YA
TTITLE5=THE HEALER
TTITLE6=WINTERLAND
TTITLE7=SECRET JESUS
TTITLE8=HOUSE OF LOVE
TTITLE9=ARE YOU READY?
TTITLE10='TIL THE END
TTITLE11=THE RAIN
TTITLE12=I WON'T WAIT
TTITLE13=DIRTY TALK, DIRTY WALK
TTITLE14=HIKE IT UP(BLACK CD VERSION)
TTITLE15=ARE YOU READY?(RAP VERSION)
TTITLE16=DATA TRACK
EXTD=YEAR: 1993
EXTT0=
EXTT1=
EXTT2=
EXTT3=
EXTT4=
EXTT5=
EXTT6=
EXTT7=
EXTT8=
EXTT9=
EXTT10=
EXTT11=
EXTT12=
EXTT13=
EXTT14=
EXTT15=
EXTT16=
PLAYORDER=
